<?xml version="1.0" standalone="no"?>
<svg xmlns:xlink="http://www.w3.org/1999/xlink" width="16" height="16" viewBox="0 0 14 22" xmlns="http://www.w3.org/2000/svg"><path fill-rule="evenodd" clip-rule="evenodd" d="M6.99794 0.33476L6.9999 14.6667L6.99794 14.8437V7.94877V0.33476ZM6.9979 7.59369e-05L0.399902 10.9478L6.99794 14.8479V14.8478L13.5959 10.9478L6.99794 7.59541e-05V0L6.99792 3.7977e-05L6.9979 0V7.59369e-05ZM6.9979 7.59369e-05L6.99794 0.33476V7.59541e-05L6.99792 3.7977e-05L6.9979 7.59369e-05ZM6.99794 14.8478L6.9979 14.8478L6.99794 14.8437V14.8478ZM6.9978 21.4965L6.9979 21.4967L6.99794 21.4967L13.5999 12.199L6.99794 16.0971V16.097L0.399902 12.1989L6.9978 21.4965Z" fill="#FFFFFF"/></svg>