<?xml version="1.0" standalone="no"?>
<svg xmlns:xlink="http://www.w3.org/1999/xlink" width="16" height="16" viewBox="0 0 16 16" fill="none" xmlns="http://www.w3.org/2000/svg" data-test-id="undefined-polygon-logo"><g clip-path="url(#clip0_798_152119)"><path d="M11.7444 5.18945C11.477 5.03821 11.1332 5.03821 10.8277 5.18945L8.6888 6.43721L7.23741 7.23124L5.13672 8.479C4.86936 8.63025 4.52561 8.63025 4.22005 8.479L2.57769 7.49592C2.31033 7.34467 2.11936 7.04219 2.11936 6.70189V4.81134C2.11936 4.50885 2.27214 4.20636 2.57769 4.01731L4.22005 3.07204C4.48741 2.92079 4.83116 2.92079 5.13672 3.07204L6.77908 4.05512C7.04644 4.20636 7.23741 4.50885 7.23741 4.84915V6.09691L8.6888 5.26507V3.9795C8.6888 3.67701 8.53602 3.37452 8.23047 3.18547L5.17491 1.40835C4.90755 1.25711 4.5638 1.25711 4.25825 1.40835L1.1263 3.22328C0.820747 3.37452 0.667969 3.67701 0.667969 3.9795V7.53373C0.667969 7.83622 0.820747 8.1387 1.1263 8.32776L4.22005 10.1049C4.48741 10.2561 4.83116 10.2561 5.13672 10.1049L7.23741 8.89492L8.6888 8.06308L10.7895 6.85313C11.0569 6.70189 11.4006 6.70189 11.7062 6.85313L13.3485 7.7984C13.6159 7.94965 13.8069 8.25214 13.8069 8.59243V10.483C13.8069 10.7855 13.6541 11.088 13.3485 11.277L11.7444 12.2223C11.477 12.3735 11.1332 12.3735 10.8277 12.2223L9.18533 11.277C8.91797 11.1258 8.727 10.8233 8.727 10.483V9.27303L7.27561 10.1049V11.3526C7.27561 11.6551 7.42838 11.9576 7.73394 12.1467L10.8277 13.9238C11.0951 14.075 11.4388 14.075 11.7444 13.9238L14.8381 12.1467C15.1055 11.9954 15.2964 11.6929 15.2964 11.3526V7.76059C15.2964 7.45811 15.1437 7.15562 14.8381 6.96656L11.7444 5.18945Z" fill="#FFFFFF"/></g><defs><clipPath id="clip0_798_152119"><rect width="14.6667" height="12.6667" fill="transparent" transform="translate(0.667969 1.33301)"/></clipPath></defs></svg>