<?xml version="1.0" standalone="no"?>
<svg xmlns:xlink="http://www.w3.org/1999/xlink" width="16" height="16" viewBox="0 0 16 16" fill="none" xmlns="http://www.w3.org/2000/svg" data-test-id="undefined-solana-logo"><path fill-rule="evenodd" clip-rule="evenodd" d="M8 16C12.4183 16 16 12.4183 16 8C16 3.58172 12.4183 0 8 0C3.58172 0 0 3.58172 0 8C0 12.4183 3.58172 16 8 16ZM4.40015 4.10559C4.46541 4.03798 4.5539 4 4.64616 4H13.159C13.314 4 13.3917 4.19442 13.282 4.30807L11.5999 6.05071C11.5346 6.11832 11.4461 6.1563 11.3538 6.1563H2.84104C2.68597 6.1563 2.60834 5.96187 2.71804 5.84823L4.40015 4.10559ZM4.40015 10.616C4.46541 10.5483 4.5539 10.5104 4.64616 10.5104H13.159C13.314 10.5104 13.3917 10.7048 13.282 10.8184L11.5999 12.5611C11.5346 12.6287 11.4461 12.6667 11.3538 12.6667H2.84104C2.68597 12.6667 2.60834 12.4722 2.71804 12.3586L4.40015 10.616ZM11.3538 7.23445C11.4461 7.23445 11.5346 7.27243 11.5999 7.34004L13.282 9.08268C13.3917 9.19632 13.314 9.39075 13.159 9.39075H4.64616C4.5539 9.39075 4.46541 9.35277 4.40015 9.28516L2.71804 7.54252C2.60834 7.42887 2.68597 7.23445 2.84104 7.23445H11.3538Z" fill="#FFFFFF"/></svg>